<?xml version="1.0" encoding="utf-8"?>
<!-- Generator: Adobe Illustrator 15.0.0, SVG Export Plug-In . SVG Version: 6.00 Build 0)  -->
<!DOCTYPE svg PUBLIC "-//W3C//DTD SVG 1.1//EN" "http://www.w3.org/Graphics/SVG/1.1/DTD/svg11.dtd">
<svg version="1.1"
	 id="svg3013" xmlns:rdf="http://www.w3.org/1999/02/22-rdf-syntax-ns#" sodipodi:docname="download_font_awesome.svg" inkscape:version="0.48.3.1 r9886" xmlns:sodipodi="http://sodipodi.sourceforge.net/DTD/sodipodi-0.dtd" xmlns:inkscape="http://www.inkscape.org/namespaces/inkscape" xmlns:svg="http://www.w3.org/2000/svg" xmlns:dc="http://purl.org/dc/elements/1.1/" xmlns:cc="http://creativecommons.org/ns#"
	 xmlns="http://www.w3.org/2000/svg" xmlns:xlink="http://www.w3.org/1999/xlink" x="0px" y="0px" width="167.15px" height="65px"
	 viewBox="0 0 167.15 65" enable-background="new 0 0 167.15 65" xml:space="preserve">
<sodipodi:namedview  gridtolerance="10" guidetolerance="10" objecttolerance="10" showgrid="false" inkscape:pageopacity="0" inkscape:pageshadow="2" inkscape:window-width="640" inkscape:zoom="0.13169643" inkscape:window-height="480" inkscape:cy="896" borderopacity="1" inkscape:cx="896" inkscape:window-x="0" inkscape:window-y="25" inkscape:window-maximized="0" inkscape:current-layer="svg3013" bordercolor="#666666" pagecolor="#ffffff" id="namedview3019">
	</sodipodi:namedview>
<g>
	<path d="M77.755,56.071c-0.074,0.661-0.149,1.263-0.223,1.786c0,0-34.138,0.562-43.404-0.818
		c-5.798-0.86-30.373-1.095-30.373-1.095s-5.454-39.266-3.217-45.854c0,0,65.365-6.103,77.57-3.976c0,0-2.643,15.807-0.369,17.788
		c1.838,1.6,1.28,17.73,0.424,27.943c0,0-1.806-0.295-1.821-0.574c-0.016-0.282,1.492-6.909,0.808-9.118
		c-0.685-2.203-4.721-2.423-5.157,0.03c-0.436,2.455-1.585,8.792-1.243,10.503c0.34,1.709,1.956,2.763,3.853,3.136
		C76.497,56.193,77.755,56.071,77.755,56.071"/>
	<path fill="#FFFFFF" d="M18.831,33.681c-0.281,0.094-0.579,0.321-0.747,0.015c-0.156-0.285-0.249-0.587-0.297-0.914
		c-0.005-0.033-0.009-0.049-0.014-0.075c0.004,0.026,0.007,0.042,0.014,0.075c-0.044-0.278-0.337-1.253,0.177-1.4
		c0.291-0.083,0.796-0.142,0.836-0.197c0.407-0.556-0.511-4.368-0.877-6.517c-0.056-0.333-0.084-0.498-0.144-0.83
		c-0.111,0.349-0.166,0.522-0.279,0.871c-0.404,1.299-1.391,3.374-1.718,4.488c-0.834,0.213-1.248,0.315-2.059,0.518
		c-0.97-1.618-2.654-4.206-2.654-4.206c-0.054,0.02,0.373,6.853,0.712,7.079c0.122,0.078,1.724-0.474,1.825-0.108
		c0.069,0.252,0.322,1.505-0.042,1.729c-0.128,0.078-0.72,0.144-0.953,0.19c-0.431,0.084-0.881,0.162-1.277,0.258
		c-0.726,0.172-2.614,0.581-3.278,0.668c-0.222,0.029-0.767,0.225-0.97,0.078c-0.174-0.125-0.131-0.666-0.208-0.834
		c-0.075-0.165-0.156-0.539-0.373-0.705c-0.171-0.129-0.252-0.371,0.061-0.467c0.394-0.119,0.853-0.166,1.3-0.184
		c-0.074-4.017-0.119-8.036-0.447-12.043c-0.034-0.16-0.081-0.423-0.128-0.447c-0.031-0.017-0.09,0.045-0.188,0.069
		c-0.287,0.068-0.598,0.167-0.899,0.286c-0.453,0.177-0.429-0.142-0.457-0.293c-0.077-0.418-0.105-0.833-0.235-1.162
		c-0.056-0.146-0.331-0.279-0.239-0.447c0.076-0.14,0.515-0.18,0.734-0.236c0.284-0.071,0.967-0.296,1.698-0.561
		c0.014-0.003,0.02-0.005,0.033-0.008c0.09-0.049,0.255-0.091,0.552-0.169c0.658-0.172,1.253-0.314,1.306-0.166
		c0.021,0.061,0.054,0.146,0.079,0.178c0.052,0.067,0.219,0.208,0.304,0.372c0.555,1.095,1.513,2.098,2.268,3.174
		c-0.001-0.007-0.002-0.014-0.004-0.023c0.599,0.818,1.846,2.365,1.87,2.361c0.371-0.088,2.114-7.713,2.114-7.713
		c-0.014-0.051-0.015-0.074,0.013-0.11c0.117-0.149,0.649-0.232,0.908-0.305c0.59-0.164,3.995-1.38,4.1-1.13
		c0.144,0.345,0.186,0.871,0.291,1.297c0.099,0.403,0.417,0.719-0.5,0.969c-0.275,0.075-0.413,0.112-0.687,0.187
		c0.18,0.587,0.315,1.184,0.444,1.781c0.346,1.59,0.546,3.254,0.837,4.877c0.381,2.121,0.692,4.297,1.049,6.482
		c0.241-0.045,0.361-0.068,0.601-0.113c0.763-0.145,0.667,0.707,0.832,1.02c0.128,0.238,0.308,1.074,0.017,1.342
		C23.986,32.811,19.654,33.407,18.831,33.681"/>
	<path fill="#FFFFFF" d="M22.451,30.541c0.173-0.41,0.788-0.269,1.287-0.217c0.363-1.024,0.547-1.537,0.907-2.564
		c0.989-3.238,1.944-6.489,2.891-9.736c0.248-0.851,0.886-3.026,0.835-3.081c-0.028-0.03-0.439,0.105-0.668,0.163
		c-0.421,0.105-1.165,0.364-1.37-0.018c-0.145-0.268-0.05-0.791-0.058-1.104c-0.011-0.313-0.2-0.726-0.106-1.045
		c0.128-0.447,0.869-0.349,1.219-0.342c0.663,0.01,3.805-1.189,3.934-0.742c0,0.012,0,0.018,0,0.03
		c0.389,0.258,0.49,0.745,0.604,1.187c1.292,4.941,1.63,10.183,3.092,15.141c-0.014-0.011-0.021-0.016-0.035-0.027
		c0.132,0.437,0.199,0.656,0.332,1.094c0.392-0.037,0.684-0.008,0.884,0.067c0.409,0.151,0.138,1.629,0.148,2.019
		c0.019,0.633-0.893,0.483-1.454,0.536c-0.849,0.079-1.704,0.234-2.575,0.28c-0.35,0.021-1.884,0.325-1.97-0.069
		c-0.076-0.337,0.102-0.778,0.105-1.109c0.003-0.303,0.018-0.571,0.021-0.872c0.005-0.496,1.136-0.298,1.178-0.355
		c0.176-0.245-0.417-3.367-0.587-3.473c-0.229-0.146-2,0.453-2.859,0.533c-0.362,1.11-0.548,1.661-0.916,2.766
		c0-0.013,0-0.018,0.002-0.028c-0.042,0.088-0.182,0.424-0.169,0.437c0.108,0.127,1.508-0.038,1.542,0.144
		c0.055,0.291-0.1,0.68-0.14,1.015c-0.038,0.327,0.01,0.721-0.11,1.099c-0.143,0.454-1.656,0.384-2.138,0.41
		c-0.83,0.048-1.626-0.011-2.457,0.017c-0.501,0.016-1.61-0.002-1.5-0.566C22.42,31.626,22.26,30.989,22.451,30.541 M30.665,23.597
		c-0.105-1.33-0.562-3.975-0.562-3.975c-0.001,0-0.189,0.681-0.304,1.007c0.015-0.013,0.021-0.02,0.036-0.032
		c-0.414,1.16-0.707,2.297-0.91,3.45C29.62,23.87,29.969,23.78,30.665,23.597"/>
	<path fill="#FFFFFF" d="M35.231,20.783c0.497-2.192,0.779-4.902,2.512-7.022c1.209-1.48,3.205-2.714,5.164-3.236
		c2.017-0.537,4.943-0.051,6.072,1.17c0.528,0.57,0.594,1.644,0.172,2.367c-0.727,1.241-3.194,2.197-4.176,1.099
		c-0.613-0.688-0.922-2.077-2.662-1.281c-1.428,0.653-2.1,2.135-2.423,3.25c-0.2,0.689-0.3,1.37-0.421,2.067
		c-0.191,1.093-0.284,2.211-0.507,3.337c-0.366,1.854-0.998,4.352,0.24,5.934c0.25,0.323,0.596,0.619,1.086,0.766
		c0.414,0.125,1.283,0.084,1.37,0.023c0.226-0.157,0.44-2.079,1.898-2.422c3.209-0.753,4.188,1.395,2.786,3.497
		c-1.103,1.654-4.57,2.062-6.482,1.876c-2.386-0.232-4.254-1.458-4.935-2.951C33.766,26.714,34.619,23.484,35.231,20.783"/>
	<path fill="#FFFFFF" d="M59.616,29.7c-0.234,0.624-1.274,0.285-1.799,0.291c-0.807,0.006-1.767,0.181-2.658,0.069
		c-0.56-0.071-1.675,0.064-1.605-0.541c0.003-0.036,0.005-0.053,0.009-0.089c-0.004,0.036-0.006,0.053-0.009,0.089
		c0.04-0.346,0.05-1.595,0.44-1.739c0.41-0.152,1.37-0.071,1.434-0.149c0.173-0.218-0.311-2.988-0.558-3.178
		c-0.135-0.106-0.999,0.046-1.52,0.084c-0.45,0.034-1.225,0.03-1.363,0.155c-0.288,0.264-0.694,1.843-1.083,2.74
		c0.003-0.035,0.006-0.052,0.011-0.085c-0.011,0.085-0.07,0.222-0.062,0.229c0.042,0.039,0.613-0.115,0.736-0.016
		c0.2,0.163,0.343,0.385,0.231,0.691c-0.136,0.372-0.183,1.525-0.562,1.759c-0.404,0.252-4.64,0.135-4.899,0.167
		c-0.443,0.058-1.721,0.329-1.565-0.241c0.107-0.392,0.24-0.734,0.338-1.145c0.072-0.303,0.084-0.619,0.305-0.921
		c0.208-0.285,1.843-0.149,2.055-0.081c0.026,0.009,0.055,0.033,0.068,0.026c0.139-0.094,0.142-0.535,0.276-0.766
		c0.922-2.572,1.373-3.862,2.204-6.424c0.544-1.665,0.925-3.268,1.349-4.896c0.437-1.677,0.702-3.389,1.205-5.034
		c0-0.064,0-0.096-0.001-0.159c0.001-0.081,0.068-0.115,0.1-0.198c0.034-0.083,0.067-0.112,0.067-0.112
		c0.133-0.014,0.236-0.032,0.299-0.057c0.352-0.142,0.933-0.128,1.195-0.178c0.716-0.136,3.936-0.636,4.05-0.151
		c0.138,0.589-0.197,1.171-0.111,1.77c0.11,0.752-0.66,0.604-1.321,0.673c-0.451,0.047-0.677,0.07-1.13,0.117
		c0.346,1.334,0.86,2.606,1.198,3.958c0.891,3.574,1.38,7.062,1.613,10.799c-0.002,0.035-0.004,0.052-0.008,0.087
		c0.787-0.085,1.515,0.008,1.362,0.571C59.743,28.405,59.84,29.104,59.616,29.7 M54.34,21.091c-0.002,0.012-0.002,0.018-0.002,0.028
		c-0.15-0.964-0.515-2.809-0.515-2.809c-0.058,0-0.641,2.075-0.911,3.098c0.001-0.012,0.001-0.017,0.002-0.027
		c-0.042,0.17-0.066,0.255-0.109,0.426c0.552-0.045,1.1-0.063,1.616-0.107C54.389,21.455,54.373,21.334,54.34,21.091"/>
	<path fill="#FFFFFF" d="M29.898,35.773c-1.281,0.758-3.653,5.212-4.166,7.313c-0.021,0.085,0.768,1.355,0.875,1.541
		c0.856,1.554,1.305,2.342,2.246,3.921c0.82-0.117,0.973,0.046,1.113,0.586c0.002,0.03,0.002,0.046,0.003,0.071
		c-0.001-0.025-0.001-0.041-0.003-0.071c0.019,0.309,0.189,1.087-0.086,1.368c-0.167,0.171-0.69,0.028-0.936,0.021
		c-0.458-0.011-0.971,0.016-1.432-0.005c-0.811-0.036-1.869-0.124-2.541-0.023c-0.742,0.11-0.639-0.666-0.658-0.971
		c-0.019-0.307-0.171-0.976,0.356-1.117c0.097-0.023,0.207-0.019,0.347-0.019c-0.486-0.844-0.725-1.266-1.183-2.103
		c-0.364,0.714-1.053,2.164-1.025,2.215c0.082,0.145,1.029,0.309,1.079,0.856c0.02,0.226,0.278,1.078-0.309,1.071
		c-0.84,0.017-1.256,0.02-2.078,0.033c-0.809,0.006-1.627,0.08-2.392,0.013c-0.256-0.022-0.841,0.048-1.08-0.122
		c-0.237-0.169-0.098-0.523-0.145-0.683c-0.111-0.394-0.588-1.227,0.225-1.177c0.347,0.02,0.939,0.141,1.078,0.053
		c0.813-0.538,2.114-3.577,2.921-5.457c-0.765-1.711-1.121-2.554-1.807-4.208c-0.238-0.527-0.854-1.881-1.29-3.036
		c-0.234,0.005-0.353,0.009-0.584,0.011c-0.227,0.005-0.812,0.146-0.993-0.006c-0.148-0.123,0.002-0.615-0.039-0.766
		c-0.042-0.148-0.058-0.484-0.236-0.632c-0.146-0.12-0.193-0.337,0.16-0.403c0.667-0.128,1.29-0.03,1.896-0.01
		c0.09,0.004,0.237,0.023,0.356,0.012c0.214-0.025,0.432-0.076,0.662-0.086c0.196-0.004,0.393,0.01,0.554,0.067
		c0.198-0.005,0.297-0.009,0.496-0.016c0.433-0.015,1.748-0.283,1.767,0.087c0.011,0.231-0.051,1.314-0.375,1.477
		c-0.1,0.052-0.507,0.038-0.742,0.045c0.045,0.131,0.068,0.198,0.111,0.325c0-0.009,0-0.014,0-0.02
		c0.586,1.275,1.862,3.85,1.862,3.85c0.155,0.014,1.425-2.521,2.16-3.804c-0.18,0.007-0.271,0.01-0.451,0.017
		c-0.731,0.093-0.502-0.702-0.559-0.958c-0.047-0.215-0.135-0.945,0.248-1.117c0.234-0.105,0.839-0.159,1.082-0.229
		c0.407-0.121,0.98,0.003,1.353-0.003c0.94-0.019,2-0.049,2.956-0.169c0.387-0.048,0.721-0.252,0.81,0.04
		c0.037,0.347,0.057,0.521,0.094,0.867c-0.015,0.274,0.105,1.161-0.493,1.24C30.728,35.717,30.072,35.665,29.898,35.773
		 M31.597,34.492c0-0.018,0.001-0.028,0.003-0.047C31.599,34.464,31.597,34.473,31.597,34.492"/>
	<path fill="#FFFFFF" d="M37.947,34.338c0.329-0.083,0.871-0.168,0.935-0.113c0.237,0.197,0.177,1.956,0.36,2.909
		c0.08,0.421-0.311,0.313-0.765,0.345c-0.485,0.026-2.219,0.612-2.109-0.104c0.038-0.247,0.074-0.734,0.026-0.779
		c-0.185-0.159-2.156-0.05-2.312,0.105c-0.004,0.006,0,0.023-0.031,0.023c-0.024,0.002-0.036,0.002-0.059,0.002
		c-0.152,2.012-0.219,3.021-0.311,5.044c1.057-0.034,2.589-0.267,3.122-0.02c0.171,0.08,0.304,0.91,0.306,1.244
		c0,0.204-0.025,0.584-0.33,0.687c-0.582,0.196-1.432,0.134-2.129,0.15c-0.353,0.01-0.528,0.013-0.879,0.022
		c0.002,0.319,0.005,0.481,0.009,0.802c0.018,1.067-0.074,2.94,0.226,3.248c0.104,0.103,0.675,0.103,0.951,0.098
		c0.457-0.011,1.267-0.005,1.342-0.092c0.05-0.061-0.003-0.51,0.055-0.741c0.063-0.235,1.259-0.269,1.52-0.328
		c0.315-0.066,0.876-0.11,0.951-0.047c0.29,0.25,0.349,1.934,0.634,2.893c0.125,0.422-0.283,0.319-0.748,0.308
		c0.039,0,0.056-0.003,0.094-0.003c-3.353,0.523-9.221,1.033-10.233,0.227c-0.147-0.121-0.147-1.267-0.252-1.685
		c-0.039-0.152,0.041-0.284,0.188-0.419c0.14-0.127,0.3-0.001,0.505,0c0.676,0.011,1.376,0.02,2.065-0.008c0.05,0,0.072,0,0.122,0
		c0.029-0.02,0.022-0.068,0.023-0.132c0.015-0.601,0.065-1.329,0.048-2.015c-0.036-1.419-0.249-2.826-0.229-4.229
		c0.027-1.92,0.061-2.879,0.145-4.778c0.004-0.054,0.004-0.079,0.008-0.132c-0.386-0.003-0.816-0.021-1.184,0.029
		c-0.457,0.065-1.394,0.352-1.521-0.066c-0.121-0.396,0.032-0.933-0.014-1.342c-0.071-0.632,1.335-0.556,1.813-0.536
		c0.421,0.015,0.775,0.01,1.146,0.002C33.507,34.869,35.816,34.879,37.947,34.338"/>
	<path fill="#FFFFFF" d="M46.067,33.432c0.036,0.496-0.194,1.051-0.253,1.557c-0.058,0.508-0.889,0.425-1.033,0.544
		c-0.125,0.098-0.198,0.838-0.251,1.228c-0.342,2.49-0.554,4.959-0.761,7.48c-0.111,1.354-0.349,2.646-0.416,3.938
		c-0.048,0.923,0.031,1.763,0.008,2.624c0,0.042-0.001,0.059-0.001,0.103c0.043,0.003,0.067,0.003,0.11,0.003
		c1.039,0.098,1.16,0.38,1.17,1.064c0.004,0.281,0.162,1.311-0.45,1.316c-0.756,0.014-1.613,0.034-2.385,0.022
		c-0.993-0.013-1.854,0.103-2.833,0.02c-0.329-0.027-1.043,0.042-1.304-0.148c-0.26-0.189-0.065-0.65-0.104-0.854
		c-0.091-0.486-0.6-1.496,0.404-1.433c0.395,0.024,1.115,0.157,1.185,0.09c0.156-0.146,0.16-1.427,0.201-2.152
		c0.179-3.279,0.415-6.582,0.778-9.826c0.016-0.13-0.225-4.496,1.109-5.773C42.845,31.694,46.051,33.207,46.067,33.432"/>
	<path fill="#FFFFFF" d="M61.921,51.014c0.334,0.753-4.681,1.422-5.408,1.545c-0.832,0.142-0.941-1.107-1.06-1.444
		c-0.212-0.598-0.092-0.913,0.984-1.098c0.068-0.014,0.104-0.016,0.173-0.028c-0.787-3.515-2.336-3.696-2.959-3.738
		c-0.395-0.027-2.667,0.276-2.726,0.363c-0.229,0.34,0.812,3.965,1.17,4.195c0.073,0.045,0.441-0.037,0.477-0.018
		c0.328,0.224,0.407,1.015,0.533,1.4c0.421,1.257-3.176,1.641-3.525,1.401c-0.009-0.009-0.046-0.046-0.053-0.052
		c-0.176-0.11-1.27,0.133-1.43-0.134c-0.314-0.523-0.421-1.158-0.703-1.755c-0.004-0.012-0.006-0.017-0.009-0.026
		c-0.155-0.427,1.081-0.515,1.121-0.57c0.548-0.779-2.341-9.508-3.287-14.313c0.001,0.013,0.002,0.016,0.003,0.027
		c-0.012-0.082-0.055-0.204-0.069-0.212c-0.131-0.09-1.458,0.275-1.53,0.207c-0.252-0.233-0.284-1.173-0.35-1.63
		c-0.073-0.512-0.07-1.009,0.613-1.16c3.185-0.709,6.783-1.617,9.877-0.83c2.063,0.526,3.087,3.177,3.375,4.933
		c0.097,0.594,0.157,1.167,0.258,1.763c0.238,1.387,0.689,3.03-0.777,4.206c0.028-0.003,0.042-0.008,0.069-0.012
		c1.672,0.61,3.146,4.882,3.582,5.143c0.146,0.09,0.893-0.164,1.043,0.109c0.283,0.511,0.353,1.159,0.6,1.702
		C61.917,50.998,61.918,51.004,61.921,51.014 M51.414,35.674c-0.692,0.022-1.37,0.182-2.05,0.311
		c-0.251,0.048-0.482,0.091-0.498,0.123c-0.37,0.797,0.69,5,1.563,7.396c0.158-0.027,0.238-0.04,0.395-0.066
		c3.265-0.55,3.53-1.694,3.134-4.023C53.754,38.209,53.38,35.603,51.414,35.674"/>
	<path fill="#FFFFFF" d="M56.839,48.205c-0.041-0.292-0.206-0.615-0.106-0.94c0.1-0.325,0.597-0.136,0.874-0.188
		c0.278-0.051,0.68-0.051,0.755-0.117c0.191-0.178,0.324-1.307,0.609-1.949c0.001,0.01,0.002,0.017,0.002,0.028
		c0.251-0.578,0.421-1.183,0.521-1.752c0.651-2.94,1.014-4.444,1.737-7.46c0.414-1.614,1.576-5.622,1.511-5.699
		c-0.061-0.075-1.123,0.155-1.574,0.288c-0.772,0.227-0.638-0.735-0.622-1.132c0.016-0.432-0.147-1.222,0.494-1.497
		c0.702-0.299,4.475-0.609,4.845-0.669c0.261-0.043,0.518-0.164,0.595-0.129c1.502,0.677,2.302,9.651,3.313,14.11
		c0-0.016,0-0.021,0-0.032c0.303,1.014,1.037,4.429,1.316,4.599c0.194,0.117,1.208-0.305,1.34,0.5c0,0.012,0,0.017,0,0.028
		c0.015,0.38,0.188,1.577-0.217,1.817c-0.229,0.139-1.791,0.248-2.231,0.303c-0.78,0.097-1.671,0.287-2.503,0.306
		c-0.289,0.008-0.841,0.194-1.126,0.104c-0.292-0.09-0.228-0.526-0.271-0.689c-0.064-0.267-0.194-1.538,0.153-1.771
		c0.287-0.193,0.961-0.212,0.977-0.238c0.13-0.188-0.654-2.887-0.819-3.015c-0.155-0.119-1.148,0.088-1.748,0.16
		c-0.488,0.057-1.213,0.032-1.473,0.23c-0.21,0.162-0.983,2.899-0.853,3.097c0.048,0.071,0.471,0.124,0.808,0.003
		c0.963-0.344,0.936,0.979,0.936,0.979c-0.001,0,0,0,0,0s0.255,1.546-0.376,1.602c-1.007,0.091-1.973,0.296-2.908,0.339
		c-1.013,0.055-2.098,0.114-3.152,0.295C56.865,49.845,56.895,48.603,56.839,48.205 M63.87,40.483
		c0.644-0.083,1.818-0.216,1.912-0.336c0.22-0.283-0.266-2.475-0.464-3.6c-0.055-0.306-0.172-0.733-0.234-0.997
		c-0.005-0.022,0-0.151-0.112-0.105C64.521,37.473,64.298,38.484,63.87,40.483"/>
	<path fill="#E26026" d="M84.234,35.721c-0.112,5.116-0.28,10.145-0.504,15.082c0.179,0.18,0.268,0.362,0.268,0.538
		c0,0.855-0.807,1.753-2.422,2.694c-1.526,0.853-2.758,1.281-3.702,1.281c-0.719,0-1.548-0.182-2.493-0.541
		c-1.031-0.404-1.75-0.874-2.153-1.411c-0.943-0.226-1.413-0.833-1.413-1.82v-0.807V50.13c0-0.177,0.022-0.38,0.067-0.607
		l0.203-3.029c0.358-2.601,0.807-4.062,1.347-4.376l1.415-0.065c1.03,0.49,1.547,1.12,1.547,1.885c0,1.883-0.27,4.578-0.809,8.079
		c0.673,0.402,1.437,0.606,2.29,0.606c0.717,0,1.392-0.182,2.02-0.54c0-0.762,0.011-1.594,0.032-2.491
		c0.022-0.896,0.057-1.863,0.101-2.894l0.201-5.389c0.092-3.007,0.171-6.282,0.237-9.829c0.068-3.546,0.099-7.428,0.099-11.648
		v-4.915l-0.067-4.916c0-1.256,0.651-1.884,1.953-1.884c1.302,0,1.953,0.628,1.953,1.884v9.898
		C84.404,25.33,84.346,30.604,84.234,35.721"/>
	<path fill="#E26026" d="M103.256,32.827c0.536,4.755,1.077,9.74,1.616,14.947l0.066,1.009v1.076c0,0.449,0.013,0.854,0.033,1.212
		c0.022,0.362,0.056,0.65,0.102,0.874c0.357,0.272,0.538,0.654,0.538,1.148c0,0.492-0.181,0.986-0.538,1.479
		c-0.403,0.493-0.854,0.743-1.345,0.743c-1.169,0-1.91-0.631-2.225-1.887l-0.201-1.684v-0.808l-0.067-0.74l-1.146-9.158h-4.441
		l-1.75,12.659c-0.091,0.628-0.405,0.942-0.943,0.942c-1.034,0-1.55-0.428-1.55-1.278c0-0.852,0.057-1.831,0.169-2.93
		c0.112-1.101,0.28-2.302,0.506-3.604l0.538-3.296c0.091-0.63,0.177-1.21,0.271-1.749c0.088-0.541,0.156-1.033,0.2-1.483
		c-0.133-0.538-0.066-1.009,0.204-1.413c0.403-3.815,0.896-7.968,1.479-12.455c0.585-4.489,1.257-9.359,2.021-14.61
		c0.044-0.044,0.021-0.292-0.068-0.741l-0.067-0.403l-0.068-0.405c0-1.391,0.786-2.087,2.357-2.087c0.809,0,1.279,0.471,1.413,1.414
		l1.211,9.562C102.155,23.514,102.717,28.068,103.256,32.827 M99.552,34.373c-0.134-1.479-0.313-3.074-0.537-4.78l-0.54-4.442
		l-0.536-4.377l-2.021,17.707l3.971-0.067C99.8,37.204,99.685,35.855,99.552,34.373"/>
	<path fill="#E26026" d="M111.939,43.732l0.338-1.209l0.338-1.079l0.74-2.625l1.819-7.07l1.953-7.003
		c0.761-2.693,1.502-5.173,2.223-7.44c0.717-2.267,1.435-4.409,2.152-6.431h-0.741c-0.314,0-0.72,0.023-1.213,0.068l-2.963,0.135
		c-1.302,0.089-2.334,0.179-3.096,0.269c-0.763,0.091-1.235,0.18-1.415,0.27c-0.718-0.45-1.077-0.943-1.077-1.481
		c0-0.853,0.427-1.302,1.279-1.348l10.436-0.605c0.494-0.405,0.965-0.606,1.414-0.606c0.49,0,0.943,0.135,1.348,0.403
		c0.492,0.359,0.739,0.763,0.739,1.212l-3.164,10.099l-2.288,7.406l-1.348,4.376l-2.827,10.705l-2.961,10.773h2.018
		c0.63-0.043,1.202-0.068,1.717-0.068h1.448c2.83,0,4.399,0.136,4.712,0.405l0.337,0.943l-0.337,0.874l-0.941,0.472l-9.896,0.136
		c-0.313,0.451-0.764,0.671-1.346,0.671c-0.452,0-0.921-0.179-1.415-0.537c-0.494-0.359-0.742-0.784-0.742-1.28
		c0-0.627,0.675-3.255,2.021-7.876L111.939,43.732z"/>
	<path fill="#E26026" d="M131.802,43.732l0.336-1.209l0.336-1.079l0.743-2.625l1.815-7.07l1.954-7.003
		c0.762-2.693,1.503-5.173,2.222-7.44c0.717-2.267,1.438-4.409,2.154-6.431h-0.74c-0.314,0-0.718,0.023-1.211,0.068l-2.965,0.135
		c-1.3,0.089-2.333,0.179-3.097,0.269c-0.762,0.091-1.234,0.18-1.415,0.27c-0.717-0.45-1.075-0.943-1.075-1.481
		c0-0.853,0.424-1.302,1.278-1.348l10.436-0.605c0.493-0.405,0.966-0.606,1.413-0.606c0.495,0,0.944,0.135,1.347,0.403
		c0.494,0.359,0.741,0.763,0.741,1.212l-3.163,10.099l-2.289,7.406l-1.347,4.376l-2.828,10.705l-2.962,10.773h2.019
		c0.63-0.043,1.201-0.068,1.717-0.068h1.447c2.828,0,4.398,0.136,4.716,0.405l0.338,0.943l-0.338,0.874l-0.944,0.472l-9.897,0.136
		c-0.314,0.451-0.763,0.671-1.347,0.671c-0.448,0-0.918-0.179-1.413-0.537c-0.492-0.359-0.741-0.784-0.741-1.28
		c0-0.627,0.673-3.255,2.02-7.876L131.802,43.732z"/>
</g>
</svg>
