<?xml version="1.0" encoding="utf-8"?>
<!-- Generator: Adobe Illustrator 15.0.0, SVG Export Plug-In . SVG Version: 6.00 Build 0)  -->
<!DOCTYPE svg PUBLIC "-//W3C//DTD SVG 1.1//EN" "http://www.w3.org/Graphics/SVG/1.1/DTD/svg11.dtd">
<svg version="1.1"
	 id="svg3013" inkscape:version="0.48.3.1 r9886" sodipodi:docname="download_font_awesome.svg" xmlns:cc="http://creativecommons.org/ns#" xmlns:dc="http://purl.org/dc/elements/1.1/" xmlns:inkscape="http://www.inkscape.org/namespaces/inkscape" xmlns:svg="http://www.w3.org/2000/svg" xmlns:sodipodi="http://sodipodi.sourceforge.net/DTD/sodipodi-0.dtd" xmlns:rdf="http://www.w3.org/1999/02/22-rdf-syntax-ns#"
	 xmlns="http://www.w3.org/2000/svg" xmlns:xlink="http://www.w3.org/1999/xlink" x="0px" y="0px" width="209.45px" height="85px"
	 viewBox="2.013 -3 209.45 85" enable-background="new 2.013 -3 209.45 85" xml:space="preserve">
<sodipodi:namedview  id="namedview3019" inkscape:zoom="0.13169643" inkscape:cy="896" borderopacity="1" inkscape:cx="896" showgrid="false" pagecolor="#ffffff" gridtolerance="10" bordercolor="#666666" objecttolerance="10" guidetolerance="10" inkscape:pageopacity="0" inkscape:pageshadow="2" inkscape:window-width="640" inkscape:window-height="480" inkscape:window-x="0" inkscape:window-y="25" inkscape:window-maximized="0" inkscape:current-layer="svg3013">
	</sodipodi:namedview>
<g>
	<path d="M113.505,74.275c-0.105,0.949-0.215,1.812-0.32,2.562c0,0-48.949,0.805-62.235-1.174c-8.313-1.231-43.55-1.57-43.55-1.57
		S-0.422,17.793,2.786,8.346c0,0,93.723-8.75,111.225-5.701c0,0-3.791,22.665-0.529,25.505c2.635,2.295,1.836,25.423,0.607,40.066
		c0,0-2.59-0.423-2.611-0.822c-0.021-0.406,2.139-9.908,1.16-13.075c-0.984-3.158-6.77-3.473-7.395,0.045
		c-0.625,3.52-2.273,12.604-1.783,15.058c0.486,2.45,2.805,3.963,5.525,4.498C111.7,74.451,113.505,74.275,113.505,74.275"/>
	<path fill="#FFFFFF" d="M29.016,42.173c-0.403,0.136-0.831,0.46-1.072,0.021c-0.222-0.408-0.356-0.842-0.425-1.311
		c-0.007-0.047-0.012-0.069-0.02-0.106c0.005,0.037,0.01,0.06,0.02,0.106c-0.063-0.398-0.483-1.797,0.253-2.006
		c0.417-0.119,1.141-0.205,1.199-0.283c0.583-0.797-0.732-6.263-1.257-9.346c-0.08-0.477-0.121-0.713-0.206-1.189
		c-0.16,0.5-0.238,0.749-0.4,1.249c-0.579,1.863-1.994,4.837-2.463,6.435c-1.196,0.307-1.79,0.453-2.952,0.743
		c-1.392-2.319-3.806-6.031-3.806-6.031c-0.077,0.028,0.535,9.826,1.021,10.15c0.175,0.112,2.471-0.679,2.617-0.154
		c0.098,0.362,0.462,2.157-0.06,2.479c-0.183,0.111-1.033,0.207-1.367,0.271c-0.617,0.12-1.263,0.233-1.832,0.371
		c-1.04,0.247-3.747,0.833-4.699,0.957c-0.319,0.041-1.101,0.322-1.392,0.111c-0.249-0.179-0.187-0.955-0.298-1.196
		c-0.106-0.235-0.223-0.771-0.535-1.011c-0.246-0.185-0.362-0.531,0.088-0.669c0.564-0.171,1.223-0.239,1.864-0.264
		c-0.106-5.759-0.171-11.522-0.641-17.268c-0.049-0.23-0.116-0.606-0.184-0.641c-0.044-0.024-0.128,0.064-0.268,0.099
		c-0.412,0.097-0.858,0.239-1.29,0.411c-0.649,0.253-0.615-0.204-0.655-0.42c-0.111-0.6-0.15-1.194-0.336-1.666
		c-0.082-0.21-0.475-0.401-0.343-0.642c0.109-0.2,0.737-0.258,1.051-0.338c0.408-0.102,1.388-0.424,2.435-0.804
		c0.02-0.004,0.029-0.007,0.047-0.011c0.129-0.071,0.366-0.131,0.792-0.242c0.943-0.247,1.796-0.45,1.874-0.238
		c0.029,0.088,0.077,0.209,0.112,0.255c0.075,0.097,0.315,0.298,0.437,0.534c0.795,1.57,2.169,3.008,3.251,4.551
		c-0.001-0.01-0.003-0.02-0.006-0.033c0.858,1.173,2.646,3.391,2.682,3.386c0.532-0.126,3.031-11.06,3.031-11.06
		c-0.021-0.073-0.022-0.106,0.018-0.158c0.168-0.213,0.932-0.333,1.302-0.437c0.846-0.236,5.729-1.979,5.878-1.621
		c0.207,0.495,0.267,1.249,0.417,1.86c0.143,0.578,0.598,1.031-0.717,1.389c-0.394,0.108-0.592,0.16-0.984,0.268
		c0.257,0.841,0.451,1.698,0.635,2.554c0.497,2.28,0.783,4.666,1.2,6.993c0.547,3.04,0.993,6.162,1.505,9.294
		c0.344-0.064,0.517-0.098,0.861-0.162c1.094-0.209,0.957,1.014,1.193,1.463c0.184,0.341,0.441,1.539,0.024,1.924
		C36.407,40.925,30.196,41.78,29.016,42.173"/>
	<path fill="#FFFFFF" d="M34.206,37.67c0.248-0.588,1.13-0.387,1.845-0.311c0.521-1.469,0.784-2.203,1.301-3.677
		c1.417-4.644,2.786-9.305,4.145-13.96c0.355-1.221,1.27-4.339,1.197-4.418c-0.041-0.042-0.629,0.151-0.958,0.234
		c-0.604,0.151-1.67,0.523-1.965-0.025c-0.207-0.385-0.071-1.134-0.083-1.583c-0.016-0.449-0.287-1.041-0.153-1.499
		c0.184-0.64,1.246-0.5,1.749-0.49c0.95,0.014,5.456-1.704,5.64-1.064c0,0.018,0,0.026,0,0.043c0.557,0.37,0.703,1.068,0.865,1.702
		c1.853,7.085,2.339,14.602,4.435,21.709c-0.021-0.015-0.031-0.022-0.051-0.038c0.189,0.627,0.286,0.939,0.476,1.568
		c0.562-0.053,0.98-0.011,1.268,0.097c0.586,0.217,0.197,2.335,0.213,2.896c0.026,0.907-1.281,0.692-2.085,0.768
		c-1.218,0.113-2.443,0.335-3.692,0.402c-0.503,0.03-2.701,0.465-2.824-0.1c-0.109-0.482,0.145-1.115,0.149-1.59
		c0.004-0.436,0.027-0.818,0.031-1.251c0.007-0.712,1.629-0.427,1.689-0.509c0.252-0.352-0.598-4.828-0.842-4.979
		c-0.329-0.209-2.868,0.649-4.1,0.764c-0.52,1.591-0.785,2.382-1.313,3.967c0-0.02,0-0.027,0.002-0.041
		c-0.06,0.126-0.26,0.607-0.242,0.627c0.155,0.182,2.162-0.055,2.211,0.207c0.08,0.416-0.143,0.974-0.2,1.453
		c-0.055,0.47,0.013,1.034-0.159,1.576c-0.205,0.651-2.375,0.551-3.065,0.588c-1.19,0.069-2.331-0.016-3.523,0.024
		c-0.718,0.024-2.309-0.003-2.15-0.811C34.161,39.226,33.932,38.313,34.206,37.67 M45.984,27.714c-0.15-1.908-0.805-5.7-0.805-5.7
		c-0.002,0-0.272,0.977-0.437,1.443c0.022-0.018,0.031-0.028,0.052-0.046c-0.594,1.663-1.014,3.294-1.305,4.947
		C44.486,28.105,44.986,27.975,45.984,27.714"/>
	<path fill="#FFFFFF" d="M52.531,23.679c0.713-3.143,1.116-7.029,3.602-10.069c1.734-2.121,4.596-3.891,7.405-4.639
		c2.892-0.771,7.088-0.073,8.707,1.677c0.756,0.817,0.852,2.357,0.246,3.394c-1.043,1.78-4.58,3.15-5.987,1.576
		c-0.879-0.986-1.322-2.978-3.817-1.837c-2.048,0.937-3.012,3.062-3.474,4.66c-0.288,0.988-0.431,1.965-0.605,2.963
		c-0.273,1.568-0.407,3.171-0.727,4.786c-0.524,2.659-1.432,6.24,0.344,8.508c0.358,0.464,0.854,0.887,1.557,1.099
		c0.594,0.179,1.84,0.12,1.965,0.032c0.324-0.225,0.632-2.98,2.722-3.472c4.601-1.08,6.004,2,3.993,5.013
		c-1.581,2.372-6.551,2.957-9.293,2.691c-3.421-0.332-6.1-2.09-7.077-4.232C50.431,32.182,51.654,27.551,52.531,23.679"/>
	<path fill="#FFFFFF" d="M87.495,36.465c-0.336,0.895-1.826,0.408-2.578,0.418c-1.158,0.008-2.535,0.258-3.812,0.098
		c-0.802-0.102-2.401,0.092-2.3-0.776c0.004-0.052,0.006-0.075,0.012-0.126c-0.006,0.051-0.008,0.074-0.012,0.126
		c0.056-0.496,0.071-2.287,0.63-2.493c0.588-0.218,1.964-0.102,2.057-0.214c0.248-0.312-0.447-4.285-0.801-4.557
		c-0.193-0.151-1.433,0.066-2.179,0.122c-0.646,0.048-1.757,0.042-1.955,0.222c-0.414,0.379-0.996,2.643-1.553,3.927
		c0.004-0.049,0.008-0.074,0.015-0.121c-0.015,0.121-0.1,0.318-0.088,0.329c0.06,0.056,0.878-0.165,1.054-0.022
		c0.287,0.234,0.493,0.552,0.332,0.99c-0.195,0.533-0.262,2.186-0.806,2.521c-0.579,0.362-6.653,0.193-7.024,0.24
		c-0.636,0.083-2.467,0.471-2.245-0.346c0.154-0.562,0.344-1.053,0.485-1.642c0.104-0.435,0.12-0.889,0.438-1.321
		c0.298-0.408,2.642-0.213,2.946-0.115c0.038,0.012,0.078,0.046,0.098,0.037c0.199-0.135,0.203-0.768,0.395-1.098
		c1.322-3.688,1.969-5.538,3.16-9.211c0.78-2.388,1.327-4.686,1.936-7.021c0.625-2.405,1.005-4.859,1.728-7.218
		c0-0.092,0-0.138-0.003-0.228c0.003-0.117,0.099-0.166,0.145-0.285c0.049-0.119,0.095-0.16,0.095-0.16
		c0.192-0.021,0.339-0.046,0.43-0.082c0.503-0.204,1.337-0.183,1.712-0.255c1.028-0.195,5.645-0.912,5.808-0.217
		c0.198,0.846-0.281,1.679-0.158,2.538c0.158,1.078-0.947,0.866-1.895,0.966c-0.647,0.067-0.971,0.1-1.621,0.167
		c0.496,1.913,1.234,3.736,1.718,5.675c1.277,5.125,1.979,10.125,2.312,15.484c-0.004,0.05-0.007,0.074-0.012,0.125
		c1.129-0.123,2.172,0.011,1.953,0.819C87.677,34.607,87.816,35.609,87.495,36.465 M79.93,24.12
		c-0.003,0.018-0.003,0.026-0.003,0.041c-0.214-1.383-0.738-4.028-0.738-4.028c-0.083,0-0.918,2.975-1.306,4.442
		c0.001-0.017,0.001-0.024,0.002-0.039c-0.06,0.244-0.094,0.366-0.155,0.611c0.791-0.064,1.577-0.09,2.316-0.153
		C80.001,24.642,79.978,24.469,79.93,24.12"/>
	<path fill="#FFFFFF" d="M44.885,45.173c-1.837,1.086-5.238,7.471-5.973,10.484c-0.031,0.122,1.101,1.944,1.254,2.21
		c1.227,2.229,1.871,3.357,3.221,5.622c1.175-0.167,1.395,0.065,1.595,0.84c0.003,0.044,0.003,0.066,0.004,0.103
		c-0.001-0.036-0.001-0.059-0.004-0.103c0.028,0.443,0.272,1.559-0.123,1.962c-0.24,0.245-0.989,0.04-1.341,0.03
		c-0.657-0.017-1.393,0.023-2.053-0.009c-1.164-0.05-2.68-0.176-3.643-0.031c-1.064,0.158-0.917-0.955-0.944-1.394
		c-0.028-0.439-0.246-1.398,0.51-1.601c0.14-0.033,0.296-0.026,0.499-0.026c-0.698-1.212-1.041-1.816-1.697-3.017
		c-0.522,1.024-1.509,3.104-1.469,3.177c0.118,0.207,1.475,0.441,1.548,1.227c0.027,0.324,0.397,1.545-0.444,1.536
		c-1.204,0.023-1.801,0.029-2.979,0.047c-1.159,0.009-2.333,0.115-3.429,0.019c-0.367-0.031-1.206,0.07-1.548-0.174
		c-0.341-0.243-0.141-0.75-0.209-0.98c-0.159-0.564-0.843-1.759,0.323-1.687c0.497,0.027,1.346,0.201,1.546,0.075
		c1.165-0.771,3.03-5.129,4.188-7.824c-1.098-2.453-1.607-3.662-2.592-6.034c-0.34-0.756-1.224-2.696-1.849-4.354
		c-0.335,0.007-0.506,0.013-0.838,0.016c-0.325,0.009-1.164,0.21-1.422-0.009c-0.213-0.177,0.002-0.882-0.056-1.097
		c-0.06-0.214-0.084-0.695-0.339-0.906c-0.208-0.172-0.277-0.483,0.23-0.578c0.956-0.184,1.85-0.043,2.718-0.015
		c0.13,0.007,0.34,0.034,0.511,0.017c0.307-0.035,0.619-0.108,0.95-0.123c0.281-0.005,0.563,0.015,0.793,0.097
		c0.285-0.007,0.426-0.013,0.712-0.023c0.62-0.021,2.506-0.406,2.533,0.126c0.017,0.33-0.073,1.883-0.538,2.117
		c-0.143,0.073-0.727,0.055-1.063,0.065c0.065,0.186,0.097,0.282,0.158,0.465c0-0.013,0-0.021,0-0.029
		c0.84,1.828,2.67,5.52,2.67,5.52c0.223,0.021,2.043-3.614,3.097-5.452c-0.259,0.008-0.389,0.014-0.646,0.024
		c-1.049,0.133-0.72-1.007-0.801-1.374c-0.068-0.309-0.194-1.355,0.356-1.603c0.334-0.15,1.203-0.228,1.55-0.327
		c0.583-0.174,1.405,0.003,1.94-0.005c1.349-0.027,2.868-0.071,4.239-0.241c0.555-0.071,1.033-0.361,1.161,0.056
		c0.053,0.499,0.083,0.748,0.136,1.244c-0.022,0.392,0.15,1.664-0.707,1.777C46.075,45.092,45.134,45.018,44.885,45.173
		 M47.321,43.336c0-0.025,0.001-0.041,0.004-0.067C47.323,43.295,47.321,43.308,47.321,43.336"/>
	<path fill="#FFFFFF" d="M56.426,43.114c0.472-0.119,1.249-0.241,1.34-0.162c0.34,0.283,0.255,2.806,0.517,4.171
		c0.114,0.604-0.445,0.449-1.097,0.494c-0.696,0.038-3.183,0.878-3.024-0.148c0.054-0.354,0.106-1.053,0.038-1.117
		c-0.266-0.227-3.092-0.071-3.316,0.151c-0.005,0.009,0,0.033-0.045,0.033c-0.033,0.004-0.05,0.004-0.083,0.004
		c-0.219,2.883-0.314,4.33-0.445,7.229c1.515-0.047,3.712-0.382,4.476-0.027c0.246,0.114,0.436,1.305,0.438,1.784
		c0,0.292-0.036,0.837-0.473,0.985c-0.835,0.279-2.053,0.19-3.052,0.214c-0.507,0.015-0.758,0.019-1.26,0.032
		c0.002,0.456,0.007,0.689,0.012,1.149c0.025,1.531-0.106,4.216,0.323,4.657c0.15,0.147,0.969,0.147,1.364,0.141
		c0.655-0.016,1.817-0.007,1.924-0.132c0.073-0.088-0.004-0.732,0.08-1.062c0.09-0.336,1.805-0.387,2.179-0.47
		c0.452-0.096,1.256-0.157,1.364-0.068c0.416,0.358,0.5,2.772,0.909,4.147c0.18,0.604-0.406,0.458-1.072,0.442
		c0.056,0,0.081-0.004,0.135-0.004c-4.808,0.749-13.222,1.48-14.673,0.325c-0.211-0.173-0.211-1.816-0.361-2.416
		c-0.056-0.219,0.059-0.407,0.269-0.601c0.202-0.183,0.432-0.001,0.726,0c0.969,0.016,1.973,0.028,2.96-0.013
		c0.072,0,0.104,0,0.175,0c0.042-0.028,0.032-0.096,0.034-0.187c0.021-0.863,0.092-1.908,0.068-2.892
		c-0.052-2.034-0.357-4.051-0.329-6.062c0.04-2.753,0.088-4.127,0.209-6.852c0.006-0.077,0.006-0.113,0.011-0.188
		c-0.553-0.007-1.17-0.031-1.698,0.042c-0.654,0.092-1.999,0.504-2.18-0.096c-0.174-0.568,0.046-1.338-0.02-1.924
		c-0.103-0.907,1.914-0.798,2.599-0.771c0.604,0.023,1.112,0.016,1.644,0.004C50.059,43.876,53.37,43.891,56.426,43.114"/>
	<path fill="#FFFFFF" d="M68.069,41.814c0.052,0.712-0.279,1.507-0.363,2.233c-0.084,0.728-1.276,0.609-1.481,0.78
		c-0.18,0.14-0.284,1.201-0.36,1.76c-0.49,3.571-0.794,7.111-1.091,10.726c-0.16,1.943-0.501,3.794-0.597,5.648
		c-0.068,1.321,0.043,2.525,0.011,3.76c0,0.062-0.001,0.085-0.001,0.149c0.061,0.004,0.095,0.004,0.158,0.004
		c1.489,0.14,1.662,0.545,1.678,1.524c0.005,0.403,0.231,1.881-0.646,1.888c-1.084,0.02-2.313,0.049-3.419,0.031
		c-1.424-0.019-2.659,0.148-4.062,0.029c-0.472-0.038-1.496,0.061-1.871-0.212c-0.372-0.271-0.092-0.932-0.148-1.225
		c-0.13-0.698-0.861-2.146,0.579-2.054c0.567,0.033,1.599,0.224,1.7,0.128c0.224-0.21,0.23-2.047,0.289-3.086
		c0.256-4.702,0.595-9.438,1.114-14.089c0.024-0.187-0.322-6.447,1.591-8.278C63.449,39.323,68.044,41.492,68.069,41.814"/>
	<path fill="#FFFFFF" d="M90.8,67.024c0.479,1.081-6.711,2.039-7.752,2.215c-1.193,0.205-1.351-1.586-1.521-2.069
		c-0.304-0.857-0.132-1.309,1.412-1.573c0.097-0.021,0.149-0.023,0.249-0.041c-1.129-5.039-3.351-5.3-4.244-5.359
		c-0.567-0.039-3.824,0.396-3.909,0.52c-0.328,0.488,1.165,5.687,1.679,6.015c0.104,0.064,0.631-0.054,0.683-0.025
		c0.471,0.322,0.584,1.457,0.765,2.008c0.603,1.803-4.554,2.354-5.056,2.008c-0.012-0.012-0.065-0.065-0.075-0.074
		c-0.252-0.157-1.822,0.19-2.05-0.191c-0.45-0.75-0.604-1.66-1.008-2.518c-0.005-0.017-0.009-0.023-0.014-0.036
		c-0.222-0.612,1.549-0.74,1.607-0.818c0.787-1.116-3.356-13.633-4.713-20.521c0.002,0.018,0.004,0.022,0.005,0.039
		c-0.018-0.117-0.08-0.293-0.099-0.306c-0.188-0.128-2.091,0.396-2.194,0.297c-0.361-0.333-0.407-1.682-0.501-2.336
		c-0.105-0.733-0.101-1.447,0.879-1.663c4.566-1.016,9.725-2.318,14.162-1.189c2.957,0.753,4.426,4.554,4.839,7.072
		c0.139,0.852,0.224,1.674,0.37,2.527c0.34,1.988,0.986,4.346-1.115,6.031c0.041-0.004,0.061-0.012,0.1-0.017
		c2.396,0.875,4.51,7,5.135,7.373c0.209,0.13,1.281-0.233,1.496,0.157c0.406,0.732,0.506,1.661,0.859,2.44
		C90.794,67.003,90.796,67.011,90.8,67.024 M75.735,45.029c-0.991,0.031-1.964,0.261-2.939,0.445
		c-0.36,0.071-0.691,0.132-0.714,0.177c-0.531,1.143,0.99,7.169,2.242,10.605c0.226-0.039,0.34-0.058,0.565-0.096
		c4.681-0.786,5.062-2.427,4.493-5.767C79.09,48.665,78.553,44.929,75.735,45.029"/>
	<path fill="#FFFFFF" d="M83.512,62.997c-0.059-0.418-0.295-0.882-0.15-1.347c0.143-0.468,0.855-0.195,1.253-0.27
		s0.975-0.074,1.083-0.169c0.273-0.254,0.465-1.875,0.873-2.795c0.002,0.017,0.003,0.024,0.003,0.041
		c0.36-0.828,0.604-1.697,0.746-2.512c0.935-4.215,1.454-6.372,2.491-10.697c0.594-2.314,2.26-8.062,2.166-8.171
		c-0.086-0.107-1.609,0.223-2.258,0.413c-1.105,0.325-0.914-1.055-0.891-1.624c0.023-0.619-0.211-1.752,0.707-2.146
		c1.008-0.429,6.418-0.873,6.947-0.959c0.375-0.061,0.744-0.234,0.855-0.184c2.152,0.969,3.299,13.838,4.748,20.232
		c0-0.023,0-0.03,0-0.048c0.436,1.455,1.488,6.352,1.889,6.596c0.277,0.168,1.73-0.438,1.92,0.717c0,0.017,0,0.024,0,0.039
		c0.021,0.547,0.271,2.263-0.311,2.605c-0.328,0.201-2.566,0.355-3.199,0.436c-1.117,0.139-2.396,0.412-3.59,0.438
		c-0.414,0.012-1.205,0.279-1.613,0.149c-0.418-0.13-0.326-0.755-0.389-0.987c-0.092-0.385-0.277-2.206,0.219-2.541
		c0.412-0.277,1.379-0.304,1.4-0.342c0.188-0.269-0.938-4.139-1.174-4.32c-0.223-0.172-1.645,0.125-2.506,0.228
		c-0.699,0.083-1.74,0.047-2.111,0.329c-0.303,0.232-1.412,4.158-1.225,4.441c0.068,0.102,0.676,0.178,1.16,0.004
		c1.381-0.492,1.342,1.404,1.342,1.404c-0.002,0,0,0,0,0s0.365,2.216-0.539,2.297c-1.443,0.131-2.83,0.425-4.172,0.486
		c-1.451,0.08-3.006,0.163-4.518,0.423C83.552,65.351,83.594,63.568,83.512,62.997 M93.594,51.925
		c0.924-0.118,2.607-0.309,2.74-0.482c0.316-0.404-0.381-3.548-0.664-5.16c-0.078-0.439-0.246-1.051-0.336-1.431
		c-0.006-0.032,0-0.216-0.158-0.149C94.528,47.609,94.208,49.06,93.594,51.925"/>
	<path fill="#E26026" d="M122.794,45.097c-0.16,7.336-0.402,14.547-0.723,21.625c0.258,0.258,0.385,0.521,0.385,0.772
		c0,1.226-1.156,2.514-3.473,3.863c-2.189,1.223-3.955,1.837-5.309,1.837c-1.031,0-2.219-0.263-3.576-0.776
		c-1.477-0.579-2.508-1.254-3.084-2.023c-1.354-0.323-2.027-1.193-2.027-2.609v-1.158v-0.869c0-0.254,0.031-0.545,0.096-0.87
		l0.291-4.343c0.514-3.73,1.158-5.825,1.932-6.275l2.029-0.094c1.477,0.703,2.219,1.606,2.219,2.702c0,2.7-0.389,6.565-1.162,11.586
		c0.965,0.576,2.062,0.869,3.283,0.869c1.027,0,1.998-0.261,2.898-0.774c0-1.095,0.016-2.285,0.045-3.572
		c0.031-1.286,0.082-2.673,0.145-4.148l0.289-7.729c0.131-4.312,0.246-9.007,0.34-14.093c0.098-5.085,0.143-10.651,0.143-16.702
		v-7.048l-0.098-7.048c0-1.801,0.936-2.701,2.801-2.701c1.867,0,2.801,0.9,2.801,2.701v14.192
		C123.038,30.198,122.956,37.762,122.794,45.097"/>
	<path fill="#E26026" d="M150.069,40.948c0.768,6.817,1.543,13.964,2.316,21.431l0.096,1.448v1.542c0,0.645,0.018,1.225,0.047,1.737
		c0.031,0.521,0.08,0.932,0.146,1.254c0.512,0.39,0.771,0.938,0.771,1.646c0,0.706-0.26,1.414-0.771,2.121
		c-0.578,0.706-1.227,1.064-1.93,1.064c-1.674,0-2.738-0.905-3.189-2.706l-0.289-2.413v-1.16l-0.096-1.061l-1.643-13.13h-6.369
		l-2.508,18.151c-0.131,0.899-0.582,1.35-1.354,1.35c-1.482,0-2.221-0.613-2.221-1.832c0-1.223,0.08-2.626,0.242-4.2
		c0.16-1.58,0.402-3.302,0.725-5.169l0.771-4.725c0.129-0.905,0.254-1.737,0.389-2.509c0.127-0.776,0.223-1.481,0.287-2.127
		c-0.191-0.771-0.094-1.447,0.293-2.026c0.578-5.471,1.285-11.424,2.119-17.857c0.84-6.437,1.803-13.42,2.898-20.949
		c0.062-0.063,0.029-0.419-0.096-1.062l-0.098-0.578l-0.098-0.58c0-1.995,1.127-2.992,3.381-2.992c1.158,0,1.832,0.675,2.025,2.027
		l1.736,13.711C148.491,27.594,149.296,34.124,150.069,40.948 M144.757,43.164c-0.191-2.12-0.447-4.406-0.768-6.854l-0.775-6.37
		l-0.77-6.275l-2.898,25.388l5.695-0.095C145.112,47.224,144.948,45.29,144.757,43.164"/>
	<path fill="#E26026" d="M162.52,56.584l0.484-1.733l0.484-1.549l1.061-3.764l2.607-10.137l2.799-10.04
		c1.094-3.862,2.156-7.417,3.189-10.668c1.027-3.251,2.057-6.322,3.086-9.222h-1.062c-0.451,0-1.033,0.033-1.74,0.097l-4.248,0.194
		c-1.867,0.127-3.348,0.256-4.439,0.386c-1.094,0.13-1.771,0.258-2.029,0.387c-1.027-0.646-1.545-1.353-1.545-2.125
		c0-1.222,0.613-1.866,1.836-1.932l14.963-0.868c0.709-0.581,1.383-0.869,2.027-0.869c0.703,0,1.352,0.193,1.934,0.577
		c0.705,0.515,1.059,1.095,1.059,1.738l-4.537,14.481l-3.281,10.619l-1.932,6.274l-4.053,15.349l-4.246,15.448h2.895
		c0.902-0.062,1.723-0.099,2.461-0.099h2.076c4.059,0,6.307,0.195,6.756,0.583l0.484,1.351l-0.484,1.253l-1.35,0.677l-14.188,0.194
		c-0.449,0.647-1.098,0.964-1.932,0.964c-0.648,0-1.32-0.258-2.029-0.771c-0.707-0.515-1.062-1.125-1.062-1.835
		c0-0.9,0.969-4.668,2.896-11.294L162.52,56.584z"/>
	<path fill="#E26026" d="M190.999,56.584l0.482-1.733l0.482-1.549l1.064-3.764l2.602-10.137l2.803-10.04
		c1.092-3.862,2.156-7.417,3.186-10.668c1.027-3.251,2.062-6.322,3.09-9.222h-1.062c-0.449,0-1.029,0.033-1.736,0.097l-4.25,0.194
		c-1.865,0.127-3.346,0.256-4.441,0.386c-1.094,0.13-1.77,0.258-2.029,0.387c-1.027-0.646-1.541-1.353-1.541-2.125
		c0-1.222,0.607-1.866,1.834-1.932l14.961-0.868c0.709-0.581,1.387-0.869,2.027-0.869c0.709,0,1.354,0.193,1.93,0.577
		c0.709,0.515,1.064,1.095,1.064,1.738l-4.537,14.481l-3.281,10.619l-1.932,6.274l-4.055,15.349l-4.246,15.448h2.895
		c0.902-0.062,1.723-0.099,2.463-0.099h2.074c4.055,0,6.307,0.195,6.762,0.583l0.484,1.351l-0.484,1.253l-1.354,0.677l-14.191,0.194
		c-0.449,0.647-1.094,0.964-1.93,0.964c-0.645,0-1.316-0.258-2.027-0.771c-0.705-0.515-1.062-1.125-1.062-1.835
		c0-0.9,0.965-4.668,2.896-11.294L190.999,56.584z"/>
</g>
</svg>
