<?xml version="1.0" encoding="utf-8"?>
<!-- Generator: Adobe Illustrator 15.0.0, SVG Export Plug-In . SVG Version: 6.00 Build 0)  -->
<!DOCTYPE svg PUBLIC "-//W3C//DTD SVG 1.1//EN" "http://www.w3.org/Graphics/SVG/1.1/DTD/svg11.dtd">
<svg version="1.1"
	 id="svg3013" inkscape:version="0.48.3.1 r9886" sodipodi:docname="download_font_awesome.svg" xmlns:cc="http://creativecommons.org/ns#" xmlns:dc="http://purl.org/dc/elements/1.1/" xmlns:inkscape="http://www.inkscape.org/namespaces/inkscape" xmlns:svg="http://www.w3.org/2000/svg" xmlns:sodipodi="http://sodipodi.sourceforge.net/DTD/sodipodi-0.dtd" xmlns:rdf="http://www.w3.org/1999/02/22-rdf-syntax-ns#"
	 xmlns="http://www.w3.org/2000/svg" xmlns:xlink="http://www.w3.org/1999/xlink" x="0px" y="0px" width="167.15px" height="65px"
	 viewBox="27.699 -1.933 167.15 65" enable-background="new 27.699 -1.933 167.15 65" xml:space="preserve">
<sodipodi:namedview  gridtolerance="10" objecttolerance="10" guidetolerance="10" inkscape:pageopacity="0" inkscape:pageshadow="2" inkscape:window-width="640" inkscape:zoom="0.13169643" inkscape:window-height="480" inkscape:cy="896" showgrid="false" inkscape:cx="896" inkscape:window-x="0" inkscape:window-y="25" inkscape:window-maximized="0" inkscape:current-layer="svg3013" bordercolor="#666666" borderopacity="1" pagecolor="#ffffff" id="namedview3019">
	</sodipodi:namedview>
<g>
	<path d="M116.673,57.746c-0.085,0.757-0.171,1.445-0.255,2.044c0,0-39.064,0.643-49.666-0.936
		c-6.635-0.985-34.755-1.252-34.755-1.252s-6.241-44.932-3.682-52.47c0,0,74.796-6.984,88.763-4.55c0,0-3.025,18.088-0.423,20.354
		c2.104,1.831,1.465,20.289,0.485,31.975c0,0-2.066-0.338-2.084-0.657c-0.018-0.323,1.707-7.907,0.924-10.433
		c-0.783-2.522-5.402-2.773-5.901,0.035c-0.498,2.808-1.814,10.06-1.422,12.017c0.39,1.956,2.238,3.161,4.408,3.589
		C115.233,57.886,116.673,57.746,116.673,57.746"/>
	<path fill="#FFFFFF" d="M49.248,32.125c-0.322,0.108-0.662,0.368-0.855,0.017c-0.178-0.326-0.284-0.672-0.34-1.047
		c-0.005-0.036-0.009-0.054-0.015-0.085c0.005,0.031,0.008,0.049,0.015,0.085c-0.05-0.317-0.385-1.433,0.203-1.601
		c0.333-0.095,0.911-0.162,0.957-0.225c0.465-0.636-0.585-4.998-1.004-7.457c-0.064-0.381-0.097-0.57-0.164-0.949
		c-0.127,0.399-0.19,0.597-0.32,0.997c-0.462,1.486-1.59,3.86-1.965,5.135c-0.956,0.244-1.428,0.361-2.356,0.593
		c-1.11-1.851-3.037-4.813-3.037-4.813c-0.062,0.023,0.427,7.842,0.815,8.1c0.14,0.09,1.973-0.543,2.088-0.124
		c0.079,0.288,0.368,1.722-0.049,1.977c-0.146,0.091-0.823,0.164-1.089,0.219c-0.494,0.096-1.008,0.185-1.461,0.295
		c-0.831,0.195-2.992,0.664-3.751,0.764c-0.254,0.034-0.877,0.258-1.111,0.09c-0.199-0.143-0.149-0.762-0.238-0.956
		c-0.086-0.188-0.179-0.616-0.427-0.806c-0.196-0.147-0.289-0.424,0.07-0.533c0.45-0.138,0.975-0.192,1.487-0.21
		c-0.085-4.598-0.136-9.196-0.512-13.782c-0.038-0.183-0.093-0.485-0.146-0.512c-0.036-0.019-0.104,0.052-0.215,0.079
		c-0.328,0.078-0.684,0.191-1.029,0.327c-0.519,0.203-0.491-0.162-0.523-0.335c-0.088-0.479-0.12-0.953-0.268-1.33
		c-0.064-0.167-0.379-0.319-0.274-0.511c0.087-0.16,0.59-0.206,0.841-0.27c0.324-0.082,1.106-0.339,1.942-0.642
		c0.016-0.003,0.023-0.006,0.038-0.009c0.104-0.056,0.292-0.104,0.632-0.194c0.753-0.196,1.434-0.359,1.494-0.19
		c0.025,0.07,0.062,0.167,0.09,0.204c0.06,0.077,0.251,0.238,0.348,0.425c0.635,1.253,1.731,2.4,2.595,3.632
		c-0.001-0.009-0.002-0.016-0.005-0.027c0.685,0.936,2.112,2.706,2.139,2.701c0.425-0.101,2.419-8.826,2.419-8.826
		c-0.015-0.058-0.016-0.085,0.015-0.126c0.134-0.171,0.742-0.265,1.039-0.348c0.676-0.188,4.571-1.579,4.691-1.293
		c0.165,0.394,0.212,0.996,0.333,1.484c0.114,0.461,0.478,0.822-0.572,1.108c-0.315,0.086-0.472,0.128-0.786,0.214
		c0.206,0.672,0.36,1.355,0.508,2.038c0.395,1.82,0.625,3.724,0.958,5.581c0.436,2.427,0.792,4.917,1.2,7.417
		c0.275-0.051,0.413-0.078,0.688-0.129c0.873-0.166,0.762,0.808,0.952,1.167c0.146,0.273,0.351,1.229,0.019,1.536
		C55.146,31.13,50.189,31.813,49.248,32.125"/>
	<path fill="#FFFFFF" d="M53.389,28.532c0.199-0.469,0.902-0.308,1.473-0.248c0.416-1.172,0.626-1.758,1.038-2.934
		c1.132-3.705,2.225-7.425,3.309-11.141c0.283-0.974,1.013-3.463,0.956-3.525c-0.032-0.034-0.503,0.12-0.765,0.186
		c-0.481,0.12-1.333,0.416-1.567-0.02c-0.166-0.306-0.058-0.905-0.067-1.263c-0.012-0.358-0.228-0.83-0.121-1.196
		C57.792,7.879,58.639,7.992,59.04,8c0.759,0.011,4.354-1.361,4.502-0.849c0,0.014,0,0.021,0,0.034
		c0.445,0.295,0.56,0.852,0.691,1.358c1.479,5.654,1.865,11.652,3.538,17.325c-0.015-0.012-0.023-0.018-0.04-0.031
		c0.152,0.5,0.228,0.75,0.38,1.252c0.448-0.042,0.782-0.009,1.012,0.077c0.468,0.173,0.158,1.864,0.17,2.31
		c0.021,0.724-1.022,0.553-1.664,0.613c-0.972,0.091-1.95,0.269-2.947,0.321c-0.4,0.023-2.155,0.371-2.254-0.08
		c-0.086-0.385,0.117-0.89,0.122-1.269c0.003-0.346,0.02-0.654,0.024-0.997c0.006-0.568,1.3-0.341,1.348-0.407
		c0.201-0.28-0.478-3.853-0.672-3.974c-0.262-0.166-2.288,0.519-3.272,0.61c-0.415,1.27-0.627,1.901-1.048,3.165
		c0-0.015,0-0.02,0.002-0.032c-0.047,0.101-0.208,0.485-0.193,0.5c0.123,0.146,1.726-0.043,1.764,0.164
		c0.062,0.333-0.115,0.778-0.16,1.162c-0.044,0.374,0.01,0.825-0.126,1.257c-0.164,0.521-1.895,0.439-2.447,0.47
		c-0.949,0.054-1.86-0.013-2.811,0.018c-0.573,0.019-1.843-0.001-1.716-0.648C53.354,29.774,53.172,29.045,53.389,28.532
		 M62.789,20.587c-0.12-1.522-0.643-4.548-0.643-4.548c-0.001,0-0.216,0.779-0.347,1.152c0.016-0.015,0.024-0.023,0.041-0.037
		c-0.474,1.327-0.809,2.628-1.041,3.948C61.594,20.899,61.992,20.796,62.789,20.587"/>
	<path fill="#FFFFFF" d="M68.013,17.367c0.569-2.508,0.891-5.609,2.874-8.035c1.384-1.694,3.667-3.106,5.909-3.703
		c2.307-0.614,5.656-0.058,6.948,1.339c0.604,0.652,0.68,1.881,0.196,2.708c-0.832,1.42-3.654,2.514-4.778,1.257
		c-0.701-0.787-1.055-2.377-3.046-1.466c-1.634,0.748-2.403,2.443-2.772,3.719c-0.229,0.789-0.344,1.567-0.483,2.366
		c-0.219,1.25-0.325,2.53-0.58,3.818c-0.419,2.122-1.142,4.98,0.274,6.79c0.288,0.37,0.683,0.708,1.244,0.877
		c0.473,0.143,1.468,0.097,1.567,0.027c0.259-0.18,0.504-2.379,2.172-2.772c3.672-0.862,4.792,1.596,3.187,4.001
		c-1.261,1.893-5.229,2.36-7.417,2.146c-2.73-0.265-4.868-1.667-5.646-3.375C66.338,24.154,67.313,20.457,68.013,17.367"/>
	<path fill="#FFFFFF" d="M95.917,27.57c-0.268,0.714-1.458,0.326-2.059,0.333c-0.923,0.007-2.021,0.207-3.041,0.079
		c-0.64-0.082-1.917,0.073-1.837-0.619c0.004-0.041,0.006-0.061,0.011-0.102c-0.005,0.041-0.007,0.061-0.011,0.102
		c0.045-0.396,0.058-1.825,0.504-1.99c0.469-0.174,1.568-0.081,1.641-0.171c0.198-0.25-0.356-3.419-0.639-3.637
		c-0.154-0.121-1.143,0.053-1.739,0.096c-0.515,0.039-1.402,0.035-1.56,0.178c-0.329,0.302-0.794,2.109-1.239,3.135
		c0.004-0.04,0.007-0.059,0.013-0.097c-0.013,0.097-0.08,0.254-0.071,0.262c0.048,0.045,0.702-0.131,0.842-0.018
		c0.229,0.186,0.393,0.441,0.265,0.791c-0.156,0.426-0.21,1.745-0.644,2.013c-0.462,0.288-5.309,0.154-5.605,0.191
		c-0.507,0.066-1.97,0.376-1.791-0.275c0.123-0.449,0.275-0.84,0.387-1.31c0.083-0.346,0.096-0.708,0.349-1.054
		c0.237-0.326,2.109-0.171,2.352-0.092c0.029,0.01,0.062,0.038,0.078,0.029c0.159-0.107,0.162-0.612,0.315-0.876
		c1.056-2.943,1.572-4.419,2.523-7.351c0.623-1.905,1.058-3.739,1.543-5.603c0.5-1.919,0.803-3.878,1.379-5.761
		c0-0.073,0-0.109-0.001-0.182c0.001-0.092,0.078-0.131,0.114-0.226c0.038-0.094,0.076-0.128,0.076-0.128
		c0.152-0.016,0.271-0.037,0.343-0.065c0.402-0.162,1.067-0.146,1.367-0.203c0.819-0.156,4.504-0.728,4.635-0.173
		c0.157,0.674-0.226,1.34-0.127,2.025c0.126,0.861-0.755,0.691-1.512,0.77c-0.517,0.054-0.775,0.08-1.293,0.134
		c0.396,1.527,0.984,2.982,1.37,4.529c1.02,4.09,1.58,8.082,1.846,12.357c-0.003,0.04-0.005,0.06-0.009,0.1
		c0.901-0.097,1.734,0.009,1.559,0.653C96.062,26.089,96.173,26.888,95.917,27.57 M89.88,17.719
		c-0.002,0.014-0.002,0.02-0.003,0.032c-0.172-1.103-0.589-3.215-0.589-3.215c-0.067,0-0.734,2.374-1.042,3.545
		c0.001-0.014,0.001-0.019,0.003-0.031c-0.049,0.194-0.075,0.292-0.125,0.487c0.632-0.052,1.258-0.072,1.848-0.123
		C89.935,18.136,89.918,17.997,89.88,17.719"/>
	<path fill="#FFFFFF" d="M61.911,34.519c-1.466,0.868-4.181,5.965-4.768,8.37c-0.023,0.097,0.879,1.551,1.001,1.764
		c0.98,1.777,1.493,2.679,2.571,4.485c0.938-0.133,1.113,0.053,1.273,0.671c0.002,0.035,0.002,0.053,0.004,0.082
		c-0.002-0.029-0.002-0.047-0.004-0.082c0.022,0.353,0.216,1.244-0.099,1.566c-0.191,0.196-0.79,0.032-1.071,0.023
		c-0.523-0.012-1.11,0.018-1.638-0.006c-0.927-0.041-2.138-0.141-2.907-0.026c-0.849,0.126-0.731-0.763-0.753-1.111
		c-0.021-0.35-0.195-1.117,0.408-1.279c0.111-0.026,0.237-0.021,0.397-0.021c-0.557-0.965-0.829-1.448-1.354-2.405
		c-0.417,0.816-1.205,2.476-1.172,2.534c0.093,0.165,1.177,0.353,1.234,0.98c0.022,0.258,0.318,1.234-0.354,1.226
		c-0.96,0.018-1.437,0.023-2.377,0.038c-0.926,0.006-1.863,0.091-2.737,0.015c-0.293-0.026-0.963,0.053-1.236-0.141
		c-0.272-0.193-0.111-0.599-0.165-0.78c-0.127-0.452-0.673-1.405,0.257-1.347c0.396,0.023,1.075,0.162,1.233,0.06
		c0.931-0.616,2.419-4.093,3.343-6.245c-0.875-1.956-1.283-2.921-2.068-4.814c-0.272-0.604-0.977-2.152-1.475-3.475
		c-0.268,0.007-0.403,0.01-0.669,0.013c-0.26,0.005-0.93,0.167-1.136-0.006c-0.17-0.141,0.002-0.705-0.045-0.877
		c-0.048-0.17-0.066-0.554-0.27-0.723c-0.167-0.137-0.221-0.386,0.183-0.462c0.764-0.146,1.476-0.035,2.169-0.01
		c0.103,0.003,0.272,0.027,0.408,0.013c0.245-0.03,0.494-0.088,0.756-0.099c0.225-0.004,0.45,0.011,0.634,0.078
		c0.227-0.007,0.34-0.01,0.568-0.018c0.495-0.018,2-0.324,2.021,0.1c0.013,0.264-0.059,1.503-0.43,1.689
		c-0.114,0.059-0.58,0.044-0.848,0.051c0.051,0.15,0.078,0.227,0.127,0.373c0.001-0.011,0.001-0.017,0.001-0.023
		c0.671,1.459,2.13,4.405,2.13,4.405c0.177,0.016,1.631-2.885,2.472-4.352c-0.206,0.008-0.31,0.011-0.515,0.018
		c-0.837,0.107-0.576-0.802-0.64-1.095c-0.054-0.247-0.154-1.082,0.283-1.279c0.268-0.121,0.96-0.182,1.237-0.262
		c0.466-0.139,1.122,0.004,1.548-0.003c1.076-0.021,2.288-0.056,3.382-0.192c0.443-0.056,0.825-0.289,0.927,0.044
		c0.042,0.397,0.064,0.597,0.107,0.993c-0.016,0.314,0.12,1.328-0.563,1.419C62.861,34.455,62.11,34.397,61.911,34.519
		 M63.855,33.054c0-0.021,0.001-0.032,0.003-0.053C63.857,33.022,63.855,33.032,63.855,33.054"/>
	<path fill="#FFFFFF" d="M71.121,32.877c0.376-0.095,0.996-0.191,1.069-0.129c0.272,0.225,0.202,2.239,0.412,3.329
		c0.091,0.482-0.356,0.359-0.875,0.393c-0.555,0.031-2.539,0.702-2.414-0.118c0.044-0.283,0.085-0.841,0.031-0.892
		c-0.211-0.183-2.467-0.058-2.646,0.12c-0.005,0.007,0,0.027-0.035,0.027c-0.027,0.003-0.041,0.003-0.068,0.003
		c-0.173,2.301-0.25,3.457-0.355,5.771c1.209-0.039,2.963-0.305,3.572-0.021c0.196,0.09,0.348,1.04,0.351,1.422
		c0,0.233-0.029,0.668-0.378,0.786c-0.666,0.225-1.639,0.152-2.437,0.172c-0.403,0.011-0.604,0.015-1.005,0.025
		c0.002,0.366,0.005,0.551,0.01,0.918c0.021,1.221-0.085,3.365,0.259,3.718c0.118,0.117,0.773,0.117,1.088,0.111
		c0.522-0.012,1.449-0.006,1.535-0.105c0.058-0.07-0.004-0.584,0.063-0.848c0.072-0.27,1.44-0.308,1.739-0.376
		c0.36-0.076,1.003-0.126,1.088-0.053c0.332,0.285,0.399,2.212,0.725,3.309c0.144,0.483-0.324,0.366-0.855,0.352
		c0.044,0,0.063-0.003,0.107-0.003c-3.836,0.599-10.55,1.183-11.709,0.259c-0.169-0.139-0.169-1.449-0.289-1.928
		c-0.044-0.173,0.047-0.325,0.215-0.478c0.16-0.146,0.343-0.003,0.578,0c0.774,0.012,1.574,0.021,2.364-0.009
		c0.057,0,0.083,0,0.139,0c0.033-0.023,0.026-0.079,0.027-0.152c0.016-0.687,0.074-1.52,0.054-2.305
		c-0.041-1.623-0.285-3.233-0.262-4.839c0.031-2.198,0.069-3.295,0.166-5.468c0.004-0.061,0.004-0.091,0.008-0.151
		c-0.441-0.003-0.933-0.023-1.354,0.033c-0.524,0.075-1.595,0.403-1.74-0.076c-0.139-0.454,0.037-1.067-0.016-1.536
		c-0.081-0.722,1.528-0.634,2.075-0.613c0.482,0.017,0.887,0.011,1.312,0.003C66.041,33.484,68.682,33.496,71.121,32.877"/>
	<path fill="#FFFFFF" d="M80.413,31.841c0.041,0.567-0.222,1.201-0.289,1.78c-0.067,0.582-1.018,0.486-1.182,0.623
		c-0.142,0.112-0.226,0.959-0.288,1.404c-0.392,2.85-0.634,5.675-0.871,8.56c-0.127,1.55-0.399,3.028-0.476,4.507
		c-0.055,1.056,0.036,2.018,0.009,3.003c0,0.047-0.002,0.067-0.002,0.117c0.05,0.003,0.077,0.003,0.126,0.003
		c1.189,0.112,1.327,0.435,1.339,1.218c0.005,0.322,0.185,1.501-0.515,1.507c-0.865,0.015-1.845,0.038-2.729,0.026
		c-1.137-0.015-2.122,0.117-3.242,0.023c-0.377-0.032-1.195,0.047-1.492-0.17s-0.075-0.745-0.12-0.977
		c-0.104-0.557-0.686-1.713,0.463-1.64c0.452,0.029,1.277,0.18,1.356,0.103c0.178-0.167,0.182-1.633,0.229-2.463
		c0.205-3.752,0.475-7.532,0.891-11.245c0.018-0.148-0.257-5.144,1.269-6.605C76.726,29.853,80.394,31.584,80.413,31.841"/>
	<path fill="#FFFFFF" d="M98.554,51.959c0.383,0.861-5.356,1.627-6.188,1.768c-0.952,0.162-1.077-1.267-1.213-1.653
		c-0.243-0.684-0.105-1.044,1.126-1.256c0.078-0.015,0.119-0.018,0.198-0.032c-0.9-4.023-2.674-4.229-3.386-4.278
		c-0.452-0.032-3.051,0.316-3.12,0.416c-0.262,0.388,0.93,4.537,1.339,4.801c0.083,0.05,0.505-0.044,0.545-0.021
		c0.375,0.256,0.466,1.161,0.611,1.602c0.481,1.439-3.634,1.877-4.035,1.604c-0.01-0.009-0.052-0.053-0.06-0.059
		c-0.202-0.127-1.453,0.152-1.637-0.153c-0.359-0.598-0.482-1.325-0.805-2.009c-0.004-0.012-0.006-0.018-0.009-0.029
		c-0.178-0.489,1.236-0.589,1.282-0.653c0.627-0.892-2.679-10.879-3.761-16.378c0.001,0.014,0.002,0.018,0.004,0.031
		c-0.014-0.093-0.063-0.233-0.079-0.243c-0.149-0.103-1.668,0.316-1.751,0.238c-0.288-0.268-0.325-1.342-0.4-1.866
		c-0.084-0.585-0.08-1.154,0.701-1.327c3.644-0.812,7.762-1.851,11.302-0.95c2.361,0.602,3.532,3.634,3.861,5.644
		c0.111,0.68,0.18,1.335,0.295,2.017c0.272,1.587,0.789,3.468-0.889,4.814c0.032-0.005,0.048-0.011,0.079-0.015
		c1.914,0.699,3.601,5.586,4.099,5.885c0.167,0.103,1.021-0.188,1.193,0.126c0.324,0.584,0.404,1.326,0.687,1.947
		C98.55,51.942,98.551,51.948,98.554,51.959 M86.532,34.406c-0.792,0.026-1.567,0.208-2.346,0.356
		c-0.287,0.054-0.551,0.103-0.569,0.141c-0.423,0.911,0.79,5.721,1.789,8.463c0.181-0.031,0.272-0.046,0.452-0.076
		c3.736-0.63,4.039-1.938,3.586-4.604C89.209,37.306,88.781,34.324,86.532,34.406"/>
	<path fill="#FFFFFF" d="M92.739,48.745c-0.046-0.334-0.235-0.704-0.121-1.076c0.114-0.372,0.683-0.155,1-0.214
		c0.318-0.059,0.778-0.059,0.864-0.135c0.219-0.203,0.37-1.495,0.697-2.23c0.001,0.012,0.002,0.02,0.002,0.032
		c0.288-0.661,0.483-1.353,0.596-2.004c0.745-3.365,1.16-5.086,1.987-8.537c0.474-1.847,1.804-6.432,1.73-6.521
		c-0.069-0.086-1.285,0.177-1.801,0.329c-0.884,0.26-0.73-0.841-0.712-1.295c0.019-0.495-0.169-1.398,0.566-1.713
		c0.802-0.343,5.12-0.697,5.544-0.766c0.298-0.049,0.591-0.187,0.68-0.147c1.719,0.774,2.634,11.044,3.791,16.145
		c0-0.017,0-0.023,0-0.037c0.347,1.16,1.187,5.068,1.506,5.263c0.222,0.134,1.382-0.349,1.533,0.572c0,0.013,0,0.018,0,0.033
		c0.018,0.434,0.216,1.804-0.248,2.079c-0.261,0.158-2.049,0.284-2.552,0.346c-0.893,0.111-1.913,0.329-2.865,0.35
		c-0.33,0.009-0.962,0.223-1.288,0.12c-0.335-0.103-0.261-0.602-0.309-0.789c-0.074-0.305-0.223-1.76,0.174-2.027
		c0.329-0.22,1.1-0.242,1.119-0.272c0.148-0.216-0.749-3.303-0.938-3.449c-0.177-0.137-1.313,0.1-2,0.182
		c-0.558,0.066-1.389,0.038-1.685,0.264c-0.241,0.186-1.125,3.319-0.976,3.544c0.055,0.082,0.539,0.141,0.924,0.003
		c1.102-0.393,1.071,1.12,1.071,1.12c-0.001,0,0,0,0,0s0.292,1.769-0.431,1.833c-1.152,0.103-2.257,0.338-3.328,0.388
		c-1.159,0.062-2.4,0.129-3.606,0.337C92.769,50.622,92.803,49.2,92.739,48.745 M100.785,39.909c0.737-0.094,2.08-0.246,2.187-0.384
		c0.252-0.324-0.304-2.832-0.531-4.119c-0.062-0.349-0.197-0.839-0.267-1.141c-0.006-0.026,0-0.173-0.129-0.12
		C101.529,36.464,101.274,37.622,100.785,39.909"/>
	<path fill="#E26026" d="M124.087,34.46c-0.128,5.854-0.321,11.608-0.577,17.258c0.205,0.205,0.307,0.414,0.307,0.616
		c0,0.979-0.924,2.006-2.772,3.082c-1.746,0.977-3.157,1.467-4.237,1.467c-0.822,0-1.771-0.208-2.852-0.619
		c-1.18-0.463-2.002-1-2.464-1.616c-1.079-0.258-1.617-0.953-1.617-2.082v-0.924v-0.695c0-0.202,0.025-0.434,0.077-0.694
		l0.232-3.467c0.41-2.976,0.924-4.647,1.541-5.007l1.619-0.075c1.179,0.562,1.771,1.282,1.771,2.157
		c0,2.155-0.309,5.238-0.926,9.245c0.77,0.46,1.644,0.694,2.62,0.694c0.821,0,1.593-0.208,2.312-0.618
		c0-0.871,0.013-1.824,0.037-2.851c0.025-1.026,0.065-2.132,0.115-3.312l0.231-6.165c0.105-3.441,0.195-7.189,0.271-11.247
		c0.078-4.058,0.113-8.5,0.113-13.329v-5.624l-0.076-5.625c0-1.437,0.745-2.156,2.235-2.156c1.489,0,2.234,0.719,2.234,2.156v11.326
		C124.281,22.57,124.216,28.605,124.087,34.46"/>
	<path fill="#E26026" d="M145.853,31.148c0.614,5.442,1.233,11.146,1.849,17.104l0.076,1.155v1.231c0,0.514,0.015,0.977,0.038,1.388
		c0.026,0.413,0.064,0.744,0.116,1c0.41,0.311,0.617,0.747,0.617,1.313c0,0.563-0.207,1.129-0.617,1.692
		c-0.462,0.565-0.976,0.851-1.538,0.851c-1.338,0-2.186-0.722-2.546-2.159l-0.23-1.927v-0.924l-0.077-0.847l-1.312-10.479h-5.082
		l-2.003,14.485c-0.104,0.719-0.464,1.079-1.079,1.079c-1.183,0-1.773-0.49-1.773-1.464s0.064-2.094,0.192-3.352
		c0.129-1.259,0.321-2.634,0.579-4.124l0.616-3.771c0.104-0.721,0.203-1.386,0.31-2.002c0.101-0.619,0.179-1.182,0.229-1.698
		c-0.152-0.615-0.076-1.154,0.233-1.617c0.462-4.365,1.026-9.117,1.693-14.251c0.669-5.137,1.439-10.71,2.313-16.718
		c0.05-0.051,0.023-0.334-0.079-0.848l-0.077-0.462l-0.078-0.463c0-1.592,0.9-2.389,2.698-2.389c0.924,0,1.464,0.539,1.616,1.618
		l1.387,10.941C144.594,20.491,145.236,25.703,145.853,31.148 M141.614,32.917c-0.152-1.693-0.358-3.517-0.614-5.469l-0.618-5.083
		l-0.614-5.008l-2.311,20.261L142,37.542C141.898,36.157,141.767,34.614,141.614,32.917"/>
	<path fill="#E26026" d="M155.79,43.627l0.386-1.383l0.386-1.235l0.848-3.004l2.082-8.09l2.234-8.013
		c0.871-3.082,1.719-5.92,2.543-8.514c0.821-2.594,1.643-5.045,2.463-7.358h-0.847c-0.361,0-0.824,0.026-1.388,0.078l-3.391,0.154
		c-1.489,0.102-2.671,0.205-3.542,0.308c-0.873,0.104-1.414,0.206-1.619,0.309c-0.821-0.515-1.233-1.079-1.233-1.695
		c0-0.976,0.488-1.489,1.464-1.542l11.941-0.692c0.565-0.463,1.104-0.694,1.618-0.694c0.562,0,1.08,0.154,1.542,0.462
		c0.564,0.41,0.847,0.873,0.847,1.387l-3.621,11.556l-2.618,8.475l-1.542,5.007l-3.236,12.25l-3.387,12.328h2.308
		c0.721-0.05,1.376-0.079,1.965-0.079h1.657c3.238,0,5.033,0.155,5.392,0.464l0.386,1.079l-0.386,1l-1.077,0.54l-11.326,0.155
		c-0.358,0.516-0.874,0.769-1.54,0.769c-0.516,0-1.053-0.206-1.619-0.616c-0.564-0.411-0.848-0.897-0.848-1.464
		c0-0.718,0.771-3.725,2.312-9.013L155.79,43.627z"/>
	<path fill="#E26026" d="M178.518,43.627l0.385-1.383l0.385-1.235l0.849-3.004l2.079-8.09l2.235-8.013
		c0.872-3.082,1.72-5.92,2.543-8.514c0.82-2.594,1.644-5.045,2.465-7.358h-0.848c-0.359,0-0.821,0.026-1.386,0.078l-3.391,0.154
		c-1.488,0.102-2.67,0.205-3.544,0.308c-0.872,0.104-1.412,0.206-1.619,0.309c-0.821-0.515-1.231-1.079-1.231-1.695
		c0-0.976,0.486-1.489,1.463-1.542l11.942-0.692c0.564-0.463,1.104-0.694,1.617-0.694c0.566,0,1.08,0.154,1.54,0.462
		c0.566,0.41,0.848,0.873,0.848,1.387l-3.619,11.556l-2.62,8.475l-1.54,5.007l-3.236,12.25l-3.39,12.328h2.31
		c0.72-0.05,1.375-0.079,1.965-0.079h1.656c3.236,0,5.033,0.155,5.396,0.464l0.386,1.079l-0.386,1l-1.081,0.54l-11.325,0.155
		c-0.36,0.516-0.873,0.769-1.541,0.769c-0.513,0-1.051-0.206-1.617-0.616c-0.564-0.411-0.849-0.897-0.849-1.464
		c0-0.718,0.771-3.725,2.312-9.013L178.518,43.627z"/>
</g>
</svg>
